<?xml version="1.0" encoding="utf-8"?>
<!-- Generator: Adobe Illustrator 23.0.4, SVG Export Plug-In . SVG Version: 6.00 Build 0)  -->
<svg version="1.1" id="Layer_1" xmlns="http://www.w3.org/2000/svg" x="0px"
     y="0px"
     viewBox="0 0 107 107.5" style="enable-background:new 0 0 107 107.5;" xml:space="preserve">
<style type="text/css">
	.st0{fill:url(#SVGID_1_);}
	.st1{opacity:0.65;fill:#FFFFFF;enable-background:new    ;}
	.st2{fill:url(#SVGID_2_);}
	.st3{fill:url(#SVGID_3_);}
</style>
  <g>
	<g>
		<g>
			
				<linearGradient id="SVGID_1_" gradientUnits="userSpaceOnUse" x1="717.6489" y1="-1167.3059" x2="728.1539"
                        y2="-1128.6802" gradientTransform="matrix(-0.5701 -0.8216 -0.8216 0.5701 -497.9914 1322.1884)">
				<stop offset="0" style="stop-color:#FFBF00"/>
          <stop offset="1" style="stop-color:#FFE73B"/>
			</linearGradient>
      <path class="st0" d="M12,77.3c0,0.1,0,0.2,0.1,0.2l0,0c0.1,0.3,0.2,0.5,0.3,0.8l0.1,0.2l0.1,0.2c0.1,0.2,0.2,0.4,0.3,0.7l0.1,0.3
				c0.2,0.3,0.3,0.6,0.5,0.8c0.1,0.1,0.1,0.2,0.2,0.3c0.2,0.2,0.3,0.5,0.4,0.6c0,0,0.1,0.1,0.1,0.2c4.6,5.8,14.4,7.8,24.3,5.1
				c10-2.8,17.4-9.6,18.3-16.9l0,0l0,0c0-0.3,0.1-0.7,0.1-1v-0.2c0-0.3,0-0.5,0-0.8c0-0.1,0-0.3,0-0.4c0-0.2,0-0.5-0.1-0.7
				c0-0.1,0-0.2,0-0.3c-0.1-0.3-0.1-0.7-0.2-1c0,0,0,0,0-0.1c-0.3-1.2-0.9-2.4-1.6-3.4c-1-1.4-2.3-2.6-3.9-3.5
				c-2.7-1.5-5.8-1.9-8.8-1c-2.2,0.6-4.1,1.8-5.6,3.4c-1.3,1.2-2.9,2-4.6,2.5c-1.7,0.5-3.5,0.5-5.2,0.2c-2.2-0.7-4.5-0.7-6.7-0.1
				C13.9,64.9,10.3,71.2,12,77.3z"/>
      <path class="st1" d="M27.8,78.5c-0.8-0.3-1.8,0.2-2,1c-0.3,0.8,0.2,1.8,1,2c0.3,0.1,7.6,2.4,15.9-2.8c0.8-0.5,1-1.5,0.5-2.2
				c0,0,0,0,0-0.1c-0.5-0.7-1.5-0.9-2.2-0.4C34,80.4,28,78.6,27.8,78.5z"/>
      <ellipse transform="matrix(0.8071 -0.5904 0.5904 0.8071 -29.2009 41.2888)" class="st1" cx="48.6" cy="65.3"
               rx="2.1" ry="3"/>
		</g>
    <g>
			
				<linearGradient id="SVGID_2_" gradientUnits="userSpaceOnUse" x1="52.318" y1="58.5954" x2="62.8229" y2="97.2212"
                        gradientTransform="matrix(1 0 0 -1 0 109.899)">
				<stop offset="0" style="stop-color:#B327C1"/>
          <stop offset="1" style="stop-color:#EA88FF"/>
			</linearGradient>
      <path class="st2" d="M66.3,12.5c-0.1,0-0.1-0.1-0.2-0.1l0,0c-0.3-0.1-0.5-0.2-0.8-0.2h-0.2h-0.2c-0.2,0-0.4-0.1-0.7-0.1h-0.3
				c-0.3,0-0.6-0.1-0.9-0.1c-0.1,0-0.2,0-0.3,0c-0.3,0-0.6,0-0.7,0h-0.2c-7.4,0.5-14.6,7.3-18,17.1c-3.5,9.8-2.1,19.7,3.5,24.7l0,0
				l0,0c0.3,0.2,0.5,0.4,0.8,0.7l0.2,0.1c0.2,0.2,0.4,0.3,0.7,0.5c0.1,0.1,0.2,0.1,0.3,0.2c0.2,0.1,0.4,0.2,0.6,0.3
				c0.1,0,0.2,0.1,0.3,0.1c0.3,0.1,0.6,0.3,0.9,0.4c0,0,0,0,0.1,0c1.2,0.4,2.5,0.6,3.7,0.6c1.7,0,3.5-0.4,5.1-1.2
				c2.8-1.4,4.8-3.7,5.9-6.7c0.7-2.1,0.8-4.4,0.3-6.5c-0.2-1.8,0-3.5,0.6-5.2s1.5-3.2,2.8-4.4c1.8-1.4,3.2-3.3,3.9-5.4
				C75.3,21.2,72.2,14.6,66.3,12.5z"/>
      <path class="st1" d="M56.3,24.8c0.7-0.5,0.9-1.5,0.3-2.3c-0.5-0.7-1.5-0.9-2.3-0.3c-0.3,0.2-6.3,4.9-6.8,14.6
				c0,0.9,0.7,1.6,1.5,1.7c0,0,0,0,0.1,0c0.9,0,1.6-0.7,1.6-1.5C51.1,28.8,56,25,56.3,24.8z"/>
      <ellipse class="st1" cx="54.5" cy="48.6" rx="3" ry="2.1"/>
		</g>
    <g>
			
				<linearGradient id="SVGID_3_" gradientUnits="userSpaceOnUse" x1="-529.8714" y1="-1172.3031" x2="-519.3665"
                        y2="-1133.6774" gradientTransform="matrix(-0.5812 0.8138 0.8138 0.5812 713.0519 1171.4464)">
				<stop offset="0" style="stop-color:#12B58B"/>
          <stop offset="1" style="stop-color:#33F2B2"/>
			</linearGradient>
      <path class="st3" d="M90.4,92.8c0.1,0,0.1-0.1,0.2-0.1l0,0c0.2-0.2,0.5-0.3,0.7-0.5l0.1-0.1l0.2-0.1c0.2-0.2,0.3-0.3,0.5-0.5
				l0.2-0.2c0.2-0.2,0.4-0.5,0.6-0.7c0.1-0.1,0.1-0.2,0.2-0.3c0.2-0.2,0.3-0.5,0.4-0.6c0,0,0.1-0.1,0.1-0.2
				c3.9-6.3,2.5-16.1-3.4-24.6c-6-8.5-14.9-13.2-22.1-11.5l0,0l0,0c-0.3,0.1-0.7,0.2-1,0.3l-0.2,0.1c-0.3,0.1-0.5,0.2-0.8,0.3
				c-0.1,0.1-0.2,0.1-0.4,0.2c-0.2,0.1-0.4,0.2-0.7,0.3c-0.1,0.1-0.2,0.1-0.3,0.1c-0.3,0.2-0.6,0.3-0.9,0.5c0,0,0,0-0.1,0
				c-1,0.7-1.9,1.6-2.7,2.7c-1,1.4-1.7,3-2,4.8c-0.5,3,0.2,6.1,2,8.6c1.3,1.8,3.1,3.2,5.1,4.1c1.6,0.8,2.9,2,3.9,3.5
				s1.7,3.1,1.9,4.8c0.1,2.3,0.8,4.5,2.2,6.3C78.1,95.1,85.3,96.4,90.4,92.8z"/>
      <path class="st1" d="M86.3,77.5c0,0.9,0.8,1.6,1.7,1.6c0.9,0,1.6-0.8,1.6-1.7c0-0.3-0.3-8-8-14c-0.7-0.5-1.7-0.4-2.3,0.3
				c0,0,0,0,0,0.1c-0.5,0.7-0.4,1.7,0.3,2.2C86,71,86.3,77.2,86.3,77.5z"/>
      <ellipse transform="matrix(0.5448 -0.8385 0.8385 0.5448 -21.9217 83.5195)" class="st1" cx="66" cy="62" rx="3"
               ry="2.1"/>
		</g>
	</g>
</g>
</svg>
